<svg width="60" height="54" viewBox="0 0 60 54" fill="none" xmlns="http://www.w3.org/2000/svg">
<path d="M42.9995 0.949203C37.6495 0.949203 32.7995 3.5495 29.7995 7.5495C26.7995 3.5495 21.9995 0.949203 16.5995 0.949203C7.49951 0.949203 0.0996094 8.3495 0.0996094 17.5495C0.0996094 21.0995 0.649611 24.349 1.64961 27.349C6.34951 42.199 20.7995 51.0495 27.9495 53.4995C28.9495 53.8495 30.5995 53.8495 31.6495 53.4995C38.7995 51.0495 53.2495 42.199 57.9495 27.349C58.9495 24.299 59.4995 21.0495 59.4995 17.5495C59.4995 8.3495 52.0995 0.949203 42.9995 0.949203Z" fill="url(#paint0_linear_1134_820)"/>
<defs>
<linearGradient id="paint0_linear_1134_820" x1="29.7996" y1="0.949203" x2="29.7996" y2="53.762" gradientUnits="userSpaceOnUse">
<stop stop-color="#FF33F7"/>
<stop offset="0.503125" stop-color="#B66DFF"/>
<stop offset="1" stop-color="#7B6EF6"/>
</linearGradient>
</defs>
</svg>
